Coordinates
version=1
nRows=11
nColumns=42
inDegrees=yes

Units are S.I. units (second, meters, Newtons, ...)
If the header above contains a line with 'inDegrees', this indicates whether rotational values are in degrees (yes) or radians (no).

endheader
time	pelvis_tilt	pelvis_list	pelvis_rotation	pelvis_tx	pelvis_ty	pelvis_tz	hip_flexion_r	hip_adduction_r	hip_rotation_r	knee_angle_r	knee_adduction_r	knee_angle_r_beta	ankle_angle_r	subtalar_angle_r	mtp_angle_r	hip_flexion_l	hip_adduction_l	hip_rotation_l	knee_angle_l	knee_adduction_l	knee_angle_l_beta	ankle_angle_l	subtalar_angle_l	mtp_angle_l	lumbar_extension	lumbar_bending	lumbar_rotation	arm_flex_r	arm_add_r	arm_rot_r	elbow_flex_r	pro_sup_r	wrist_flex_r	wrist_dev_r	arm_flex_l	arm_add_l	arm_rot_l	elbow_flex_l	pro_sup_l	wrist_flex_l	wrist_dev_l
      1.32000000	     20.60295957	      3.18751334	      2.81758293	      0.02701813	      0.93727467	     -0.26169410	    -22.72749632	     -9.73868605	    -16.32135517	     54.65850840	     -1.28909851	      0.95397094	     -3.33920223	     12.44977514	     -7.64772563	     -6.65895423	      7.96187003	     -5.98468180	     24.77231565	     -5.28368680	      0.43235847	     17.70209530	      3.34614042	     -7.64772563	    -32.17924968	     -3.88535701	      3.31640528	     10.47865978	    -11.57995097	    -20.77923472	     27.94751975	     90.00000001	      0.00000000	      0.00000000	     -2.67866933	    -17.10581281	      2.38739208	     68.68352665	     90.00000001	      0.00000000	      0.00000000
      1.33000000	     20.72437697	      3.02454762	      2.75597713	      0.03219629	      0.93778320	     -0.26333239	    -21.66728293	     -9.72273626	    -16.20047581	     56.50497008	     -1.78028352	      0.98619777	     -2.50987359	     11.35655160	     -7.64464193	     -7.16630580	      7.81107464	     -5.76943155	     24.79475428	     -4.99345484	      0.43275010	     18.12619489	      3.25952581	     -7.64464193	    -32.38109668	     -3.79422630	      3.41863489	      9.97164845	    -11.75013666	    -20.98770769	     27.81412453	     90.00000001	      0.00000000	      0.00000000	     -2.49204037	    -17.18494058	      2.37526762	     68.97906846	     90.00000001	      0.00000000	      0.00000000
      1.34000000	     20.78941491	      2.91107315	      2.72353058	      0.03718867	      0.93819135	     -0.26503617	    -20.53241539	     -9.77747702	    -16.18414501	     58.28356400	     -2.19945419	      1.01724009	     -1.32375317	      9.99205024	     -7.64153011	     -7.56851515	      7.75626783	     -5.39183391	     24.90228236	     -4.75124061	      0.43462682	     18.43688845	      2.92403464	     -7.64153011	    -32.54584166	     -3.73610539	      3.43865554	      9.52884428	    -11.89488840	    -21.25937015	     27.62898272	     90.00000001	      0.00000000	      0.00000000	     -2.30759880	    -17.30096845	      2.40630801	     69.21687424	     90.00000001	      0.00000000	      0.00000000
      1.35000000	     20.88145817	      2.77421284	      2.67165998	      0.04206047	      0.93866836	     -0.26661904	    -19.42351716	     -9.77505684	    -16.18850990	     59.84659892	     -2.61638335	      1.04452020	      0.03243811	      8.69446931	     -7.63859689	     -8.02321196	      7.67393957	     -4.88907091	     24.95564074	     -4.44821560	      0.43555810	     18.63786182	      2.36653970	     -7.63859689	    -32.74370719	     -3.66674397	      3.46513830	      9.13802328	    -12.01431410	    -21.58684764	     27.41791967	     90.00000001	      0.00000000	      0.00000000	     -2.12092088	    -17.40746342	      2.42389851	     69.42470011	     90.00000001	      0.00000000	      0.00000000
      1.36000000	     20.86121592	      2.85090632	      2.62736665	      0.04649810	      0.93909909	     -0.26845634	    -18.16682203	    -10.10441093	    -15.87297923	     61.38560239	     -2.48535792	      1.07138087	      1.28602234	      6.93316794	     -7.63002069	     -8.48818929	      7.92689532	     -3.38998910	     24.76811301	     -3.88154891	      0.43228512	     18.02297935	     -0.17520439	     -7.63002069	    -32.88601674	     -3.77545029	      3.33749517	      9.02494547	    -11.97840610	    -23.08749420	     26.93021537	     90.00000001	      0.00000000	      0.00000000	     -1.88148905	    -17.54748253	      2.49021997	     69.53828548	     90.00000001	      0.00000000	      0.00000000
      1.37000000	     21.12611929	      2.61636116	      2.52522144	      0.05124240	      0.93997113	     -0.26975147	    -17.26401576	     -9.85608942	    -16.06406652	     62.32663981	     -3.16865366	      1.08780508	      2.94819969	      6.22049778	     -7.62793899	     -9.22714730	      7.69169092	     -3.03027104	     24.56802941	     -3.55411277	      0.42879300	     18.25592484	     -0.36188467	     -7.62793899	    -33.26676153	     -3.62249369	      3.42912367	      8.66815765	    -12.10713399	    -23.31440750	     26.77552883	     90.00000001	      0.00000000	      0.00000000	     -1.68118736	    -17.61937530	      2.41310719	     69.74474964	     90.00000001	      0.00000000	      0.00000000
      1.38000000	     21.29350987	      2.43898734	      2.43970248	      0.05579132	      0.94065733	     -0.27103088	    -16.22345656	     -9.66710433	    -16.32612825	     63.14464419	     -3.82947004	      1.10208195	      4.63326208	      5.62087774	     -7.62585711	     -9.84436668	      7.55538983	     -2.62217694	     24.37752168	     -3.28926152	      0.42546802	     18.41221714	     -0.73224279	     -7.62585711	    -33.56299670	     -3.53711431	      3.45274929	      8.35920584	    -12.21552876	    -23.57344214	     26.58930893	     90.00000001	      0.00000000	      0.00000000	     -1.49910123	    -17.74007092	      2.36526759	     69.91662265	     90.00000001	      0.00000000	      0.00000000
      1.39000000	     21.42049631	      2.28875920	      2.35521915	      0.06024248	      0.94128866	     -0.27229884	    -15.14041942	     -9.46461399	    -16.53938887	     63.73828859	     -4.46090563	      1.11244300	      6.26701753	      5.20078056	     -7.62397385	    -10.43455973	      7.46730254	     -2.25849510	     24.13304706	     -3.08127714	      0.42120113	     18.51204528	     -1.13459151	     -7.62397385	    -33.81097772	     -3.47387144	      3.45077202	      8.06601464	    -12.30418443	    -23.84561352	     26.39092661	     90.00000001	      0.00000000	      0.00000000	     -1.32180838	    -17.85395373	      2.31935286	     70.06738168	     90.00000001	      0.00000000	      0.00000000
      1.40000000	     21.49806025	      2.19201795	      2.30347895	      0.06452494	      0.94183654	     -0.27362731	    -14.00594389	     -9.28321501	    -16.74315919	     64.12365817	     -5.05137582	      1.11916896	      7.86085130	      5.04937228	     -7.62192845	    -10.98256405	      7.43259025	     -1.88601206	     23.82560698	     -2.85436076	      0.41583529	     18.50713539	     -1.58331747	     -7.62192845	    -34.02991179	     -3.44771169	      3.38456980	      7.81577202	    -12.36915441	    -24.20373619	     26.18470397	     90.00000001	      0.00000000	      0.00000000	     -1.15508555	    -17.99255245	      2.27672660	     70.19165567	     90.00000001	      0.00000000	      0.00000000
      1.41000000	     21.55300993	      2.39899530	      2.29426987	      0.06874899	      0.94241406	     -0.27531995	    -12.89582407	     -9.49636252	    -17.60457880	     64.25136827	     -6.10217587	      1.12139793	      9.70169699	      6.77756839	     -7.61429896	    -11.74258659	      7.82119589	     -0.56460203	     23.07404193	     -2.47416060	      0.40271800	     17.71649540	     -3.57689760	     -7.61429896	    -34.24221646	     -3.67287564	      3.10789383	      7.83963407	    -12.20562342	    -26.22737628	     25.66569056	     90.00000001	      0.00000000	      0.00000000	     -0.99700927	    -18.15954955	      2.27914272	     70.30090008	     90.00000001	      0.00000000	      0.00000000
      1.42000000	     21.62047921	      2.29719584	      2.25418083	      0.07292394	      0.94295582	     -0.27655617	    -11.78082358	     -9.21252379	    -17.85785841	     64.11359234	     -6.75962955	      1.11899328	     10.97462793	      7.17485579	     -7.60105429	    -12.29755913	      7.78546808	     -0.34442449	     22.69446810	     -2.36540250	      0.39609319	     17.67910546	     -3.78978429	     -7.60105429	    -34.44049182	     -3.63256598	      3.01687317	      7.84644897	    -12.10385426	    -28.06999252	     25.23853075	     90.00000001	      0.00000000	      0.00000000	     -0.85522611	    -18.28796317	      2.23510305	     70.36184430	     90.00000001	      0.00000000	      0.00000000
